<?xml version="1.0" encoding="UTF-8"?>
<svg version="1.1" xmlns="http://www.w3.org/2000/svg" width="2000" height="2000">
<path d="M0 0 C660 0 1320 0 2000 0 C2000 660 2000 1320 2000 2000 C1340 2000 680 2000 0 2000 C0 1340 0 680 0 0 Z " fill="#FEFEFE" transform="translate(0,0)"/>
<path d="M0 0 C0.76102331 -0.00265183 1.52204662 -0.00530365 2.30613124 -0.00803584 C4.87700792 -0.01574492 7.44783696 -0.01628863 10.01872444 -0.01688576 C11.87233451 -0.02089935 13.72594369 -0.02533739 15.57955182 -0.03016531 C20.68978494 -0.04214866 25.80000862 -0.04778337 30.91025305 -0.05234647 C36.41561918 -0.05829605 41.92097398 -0.06990766 47.42633247 -0.08063698 C60.7318957 -0.10517814 74.03746269 -0.11979188 87.3430416 -0.13269705 C91.10074477 -0.13640812 94.85844758 -0.14038143 98.61615038 -0.14444971 C121.94605156 -0.16968844 145.2759537 -0.19175988 168.60586548 -0.20417786 C174.01188726 -0.20709915 179.41790901 -0.21006667 184.82393074 -0.21308327 C185.49555627 -0.21345418 186.1671818 -0.21382509 186.85915961 -0.21420723 C208.62259905 -0.22635596 230.3859575 -0.25728794 252.14935892 -0.29900479 C275.16247947 -0.34303657 298.17556652 -0.36871578 321.18873322 -0.37409842 C333.73173769 -0.37751197 346.27461445 -0.38926044 358.81757927 -0.42220116 C369.50153717 -0.45021339 380.18534118 -0.46119583 390.86933295 -0.4500057 C396.3190544 -0.44482186 401.76845364 -0.44768828 407.2181282 -0.47247124 C412.21254447 -0.49499381 417.20640766 -0.49420023 422.20083381 -0.47526737 C424.00245161 -0.47247157 425.80410715 -0.47804235 427.60566436 -0.4930803 C442.22965694 -0.60763223 454.6603282 1.43106486 465.62373543 12.13701439 C476.28774037 23.9034612 478.93112179 34.7918533 478.87770271 50.35744286 C478.88000849 51.81725092 478.8831858 53.27705782 478.8871572 54.7368623 C478.895498 58.73986015 478.89138316 62.74276251 478.88518476 66.74576068 C478.88065828 71.06623843 478.88764507 75.38669981 478.89314461 79.7071743 C478.90203859 88.16822373 478.90011644 96.62923768 478.89431933 105.0902885 C478.88980227 111.96790823 478.88919013 118.84551802 478.89136696 125.72313881 C478.89167342 126.70206975 478.89197989 127.6810007 478.89229564 128.68959621 C478.8929351 130.6783119 478.89358352 132.66702758 478.89424083 134.65574326 C478.89994429 153.30543233 478.89338628 171.95510175 478.88264009 190.6047876 C478.87370737 206.60235612 478.8752543 222.59989561 478.88447762 238.59746361 C478.89518477 257.17739532 478.89939202 275.75730979 478.89325309 294.33724415 C478.892616 296.31924891 478.89198725 298.30125367 478.89136696 300.28325844 C478.89105841 301.25842215 478.89074986 302.23358586 478.89043196 303.23829999 C478.88870615 310.10555221 478.89161773 316.97279349 478.89632607 323.84004402 C478.90193996 332.2121101 478.90040784 340.58413868 478.88976458 348.95620047 C478.88451431 353.22664698 478.88244011 357.49703101 478.88906288 361.76747704 C478.89503795 365.67950639 478.89172157 369.59141557 478.88110778 373.50343408 C478.87888031 374.91589124 478.87999531 376.32835864 478.88485935 377.74080919 C478.93246262 392.71725882 476.26521294 406.1341322 465.58857918 417.39482689 C453.21002366 428.37064351 438.99245414 429.73123254 423.25361824 429.65167809 C421.40389771 429.65701005 419.55418151 429.66407947 417.7044735 429.67272514 C412.64675402 429.69129281 407.58932853 429.68506777 402.53159714 429.67457211 C397.06728911 429.66756349 391.60304047 429.68359058 386.13875008 429.69656944 C375.44413652 429.71818621 364.74962947 429.71808858 354.05500126 429.7099439 C345.3616343 429.70363871 336.66829835 429.7047857 327.97493172 429.71121597 C326.11752479 429.71256846 326.11752479 429.71256846 324.2225945 429.71394826 C321.70690567 429.7157995 319.19121686 429.71766206 316.67552805 429.71953582 C293.76935847 429.73563379 270.86323555 429.72844573 247.95707113 429.71198268 C227.06335869 429.69713377 206.16977697 429.70591983 185.27607918 429.73393822 C161.78121305 429.7653848 138.28640738 429.78026254 114.79151726 429.7701382 C112.28519123 429.76911567 109.77886519 429.76812106 107.27253914 429.76715469 C106.03944614 429.7666783 104.80635314 429.76620191 103.53589368 429.76571109 C94.85506643 429.76354821 86.17430014 429.77334428 77.4934864 429.78792572 C66.91143844 429.80545315 56.32956812 429.80532549 45.74752712 429.78257407 C40.35053813 429.77143625 34.9538621 429.76825934 29.55688667 429.78687477 C24.6121999 429.80371051 19.66809831 429.79728635 14.72344923 429.77265798 C12.93895197 429.76778453 11.15440723 429.77126343 9.36994982 429.78414542 C-5.63621238 429.88462014 -17.7917156 426.73549865 -29.27470207 416.43388939 C-37.96839405 407.39852393 -41.48975118 396.11782357 -41.51048565 383.79906082 C-41.51494349 382.56350193 -41.51940134 381.32794304 -41.52399427 380.05494297 C-41.52390499 378.6971174 -41.52371518 377.33929183 -41.52343559 375.98146629 C-41.52673815 374.52863439 -41.53046454 373.0758034 -41.53457707 371.62297356 C-41.54456025 367.63913002 -41.5483079 363.65530155 -41.55096638 359.67144728 C-41.55488028 355.37134319 -41.56445769 351.07125092 -41.57317924 346.7711544 C-41.59291079 336.39201717 -41.60300467 326.01287902 -41.61190704 315.63372773 C-41.61629448 310.7420932 -41.62166002 305.85045975 -41.6268959 300.95882607 C-41.64390322 284.69228592 -41.65839731 268.42574643 -41.66564465 252.15919876 C-41.66755443 247.94119198 -41.66947478 243.72318521 -41.67143059 239.50517845 C-41.67191433 238.45685998 -41.67239807 237.40854152 -41.67289647 236.32845582 C-41.68119662 219.3468512 -41.70653554 202.36531702 -41.73901127 185.38374315 C-41.77210349 167.9371959 -41.79009528 150.49068444 -41.79328889 133.04410565 C-41.79545174 123.25326231 -41.80416774 113.46252176 -41.82975006 103.67170906 C-41.85148643 95.33377302 -41.85949295 86.99596477 -41.84978328 78.65800361 C-41.84524739 74.40723519 -41.8470833 70.15673028 -41.86654472 65.90599823 C-41.88423996 62.00722323 -41.88312772 58.10890274 -41.86764743 54.21012248 C-41.86528098 52.80700858 -41.86954446 51.40386266 -41.88147608 50.0007975 C-42.00123228 34.9760585 -38.65027646 23.02101959 -28.30985832 11.91826439 C-20.38605697 4.32048706 -10.96363275 -0.01844476 0 0 Z " fill="#F2C524" transform="translate(781.3762645721436,521.8629856109619)"/>
<path d="M0 0 C3.35288968 1.72700429 6.29724619 3.93246099 9.3125 6.1875 C10.62311401 7.13665283 10.62311401 7.13665283 11.96020508 8.10498047 C13.7692667 9.41730562 15.57321207 10.73671144 17.37207031 12.06298828 C20.55297027 14.40758696 23.75834332 16.71688025 26.96582031 19.02490234 C29.19151241 20.62788982 31.41238756 22.23738334 33.6328125 23.84765625 C41.45460228 29.50756605 49.36667819 35.04089172 57.265625 40.59228516 C59.53193908 42.18554635 61.7972295 43.78025556 64.0625 45.375 C64.74062744 45.85074463 65.41875488 46.32648926 66.11743164 46.81665039 C69.57963503 49.25440696 73.02050585 51.7204437 76.43359375 54.2265625 C77.09286865 54.70947754 77.75214355 55.19239258 78.43139648 55.68994141 C80 57 80 57 81 59 C81.65145996 58.89977539 82.30291992 58.79955078 82.97412109 58.69628906 C84.35978271 58.48311035 84.35978271 58.48311035 85.7734375 58.265625 C86.81371094 58.10545898 87.85398437 57.94529297 88.92578125 57.78027344 C91.24854808 57.42317763 93.57146812 57.06707716 95.89453125 56.71191406 C101.98828794 55.77882807 108.07871422 54.83029116 114.1640625 53.84375 C115.31084473 53.66038086 116.45762695 53.47701172 117.63916016 53.28808594 C119.82473209 52.93816581 122.00937306 52.58236288 124.19287109 52.21972656 C137.81967417 50.05632738 137.81967417 50.05632738 143 51 C146.5525147 53.80581898 148.57270317 56.71810952 150 61 C150.37211494 66.67475291 150.07379619 70.03463692 147 75 C144.61291843 77.38708157 143.4429121 77.48523329 140.16796875 78.0703125 C138.72260742 78.33134766 138.72260742 78.33134766 137.24804688 78.59765625 C136.23806641 78.77167969 135.22808594 78.94570313 134.1875 79.125 C133.18912109 79.30675781 132.19074219 79.48851562 131.16210938 79.67578125 C126.69671068 80.46711773 122.54010896 81.0406728 118 81 C118.01441132 82.12806061 118.02882263 83.25612122 118.04367065 84.41836548 C118.1693179 99.04754055 117.51015101 113.60424262 116.7578125 128.2109375 C116.62777218 130.79764271 116.49804835 133.38436386 116.36862183 135.97109985 C116.09777291 141.36176256 115.82350299 146.75223439 115.54638672 152.14257812 C115.22943262 158.30889138 114.91924291 164.47551682 114.6126529 170.64235342 C114.31350988 176.65571846 114.00922441 182.66881089 113.70284653 188.68181229 C113.57482629 191.20345309 113.44804852 193.72515734 113.32263565 196.24692917 C112.71936834 208.32945419 112.06137444 220.40776358 111.09326172 232.46728516 C111.02886965 233.37762701 110.96447758 234.28796886 110.89813423 235.22589684 C110.20176514 243.23159844 110.20176514 243.23159844 107 246 C104.9727478 246.76213074 104.9727478 246.76213074 102.60693359 247.13745117 C101.70769165 247.28865417 100.80844971 247.43985718 99.88195801 247.59564209 C98.89739624 247.74325989 97.91283447 247.89087769 96.8984375 248.04296875 C95.86021851 248.21242004 94.82199951 248.38187134 93.75231934 248.55645752 C90.29560976 249.11641163 86.8355538 249.65186026 83.375 250.1875 C80.93091394 250.57867282 78.48706958 250.97135852 76.04345703 251.36547852 C69.63334229 252.39480297 63.22014641 253.40332114 56.80566406 254.4050293 C50.81726965 255.34124415 44.83059871 256.28833561 38.84375 257.234375 C31.81356017 258.34441307 24.78306186 259.45237463 17.75146484 260.5534668 C-0.76257624 263.4575792 -19.24784667 266.51969582 -37.72875977 269.62692261 C-59.43292559 273.27367419 -81.15937306 276.75114945 -102.90625 280.1328125 C-104.62090958 280.40049438 -104.62090958 280.40049438 -106.37020874 280.67358398 C-108.48255787 281.00315844 -110.5951856 281.33095507 -112.7081604 281.65649414 C-118.09921797 282.49800499 -123.41030421 283.47246388 -128.7227478 284.72387695 C-131.40678434 285.04932371 -133.41021331 284.75608268 -136 284 C-139.31420121 279.85827519 -140.90403388 274.43491888 -142.78125 269.515625 C-143.14691574 268.56870789 -143.51258148 267.62179077 -143.889328 266.6461792 C-145.09713028 263.51573705 -146.29848853 260.38286143 -147.5 257.25 C-148.34952201 255.04538239 -149.19954637 252.8409583 -150.05004883 250.63671875 C-151.82001319 246.04828561 -153.58780012 241.45902257 -155.35400391 236.86914062 C-159.05474179 227.25619257 -162.77901223 217.65238398 -166.50466919 208.04907227 C-167.68509958 205.00618775 -168.86493891 201.96307458 -170.04467773 198.91992188 C-175.36822159 185.1904724 -180.70873183 171.46769084 -186.0625 157.75 C-186.40469574 156.87311523 -186.74689148 155.99623047 -187.09945679 155.09277344 C-188.05685991 152.63984492 -189.01464683 150.18706678 -189.97265625 147.734375 C-190.39156631 146.66144196 -190.39156631 146.66144196 -190.81893921 145.5668335 C-191.91374893 142.76553726 -193.0119139 139.97198975 -194.18920898 137.20410156 C-195 135 -195 135 -195 132 C-196.07636719 132.20496094 -197.15273438 132.40992188 -198.26171875 132.62109375 C-202.83151227 133.47464714 -207.41164077 134.25326509 -212 135 C-213.90458984 135.31324219 -213.90458984 135.31324219 -215.84765625 135.6328125 C-223.91537275 136.65169748 -223.91537275 136.65169748 -226.83984375 134.89453125 C-228.1875 133.375 -228.1875 133.375 -230 130 C-230.680625 128.88625 -230.680625 128.88625 -231.375 127.75 C-232.6173199 122.28379246 -232.00085332 117.00170663 -229.5 112 C-223.59186508 107.27349206 -213.77126869 107.23402008 -206.47265625 106.0546875 C-205.40252792 105.87994904 -204.3323996 105.70521057 -203.22984314 105.525177 C-200.98538011 105.15926414 -198.7407119 104.79460778 -196.49584961 104.43115234 C-193.0481353 103.87267313 -189.60117973 103.30967954 -186.15429688 102.74609375 C-183.96879313 102.39035989 -181.78324772 102.03488195 -179.59765625 101.6796875 C-178.56439713 101.51097137 -177.531138 101.34225525 -176.46656799 101.16842651 C-175.51475143 101.01471588 -174.56293488 100.86100525 -173.58227539 100.70263672 C-172.74338272 100.56654999 -171.90449005 100.43046326 -171.04017639 100.29025269 C-169 100 -169 100 -167 100 C-166.92136719 99.29101562 -166.84273437 98.58203125 -166.76171875 97.8515625 C-165.79976513 94.25040278 -164.15656909 92.27353894 -161.8125 89.375 C-160.8964398 88.22163594 -159.98250215 87.06658393 -159.0703125 85.91015625 C-158.57563477 85.28512207 -158.08095703 84.66008789 -157.57128906 84.01611328 C-154.70329664 80.33620628 -151.94875618 76.57277675 -149.1875 72.8125 C-148.29792603 71.60315796 -148.29792603 71.60315796 -147.39038086 70.36938477 C-142.81093734 64.13177094 -138.28428519 57.85690071 -133.765625 51.57519531 C-129.64208961 45.85618443 -125.43754275 40.20222297 -121.18725586 34.5769043 C-117.57510673 29.79206619 -114.06730912 24.94528739 -110.62109375 20.0390625 C-108.38908492 17.23157187 -106.68087376 16.10361122 -103.125 15.5625 C-100 16 -100 16 -97.125 18.125 C-95 21 -95 21 -94.484375 23.63671875 C-95.25613273 28.67068392 -98.03148754 31.74273348 -101.125 35.6875 C-102.42097725 37.39031735 -103.71653887 39.09345109 -105.01171875 40.796875 C-105.6773584 41.66248047 -106.34299805 42.52808594 -107.02880859 43.41992188 C-110.05674472 47.38316549 -112.99337207 51.41186428 -115.9375 55.4375 C-121.50446176 63.0074023 -127.13620661 70.52753873 -132.78320312 78.0378418 C-137.24920092 83.98281574 -141.65542867 89.965577 -146 96 C-133.35451798 94.33600412 -120.7943684 92.15315715 -108.21936035 90.03314209 C-87.41434439 86.5283696 -66.59927228 83.10815779 -45.75 79.875 C-28.94072645 77.2675411 -12.15133515 74.56183077 4.625 71.75 C6.64558519 71.41192269 8.6661743 71.07386884 10.68676758 70.73583984 C17.5777786 69.58219324 24.46876135 68.42839485 31.35791016 67.26367188 C34.88338923 66.66921586 38.41012856 66.08309942 41.9375 65.5 C42.87094238 65.33983398 43.80438477 65.17966797 44.76611328 65.01464844 C50.24886236 64.11801977 55.442886 63.86541803 61 64 C61 63.34 61 62.68 61 62 C60.33097656 61.77828125 59.66195313 61.5565625 58.97265625 61.328125 C55.08770568 59.59240464 51.87284224 57.24086325 48.4375 54.75 C46.91573865 53.66093545 45.39358696 52.57241618 43.87109375 51.484375 C43.07558105 50.91396484 42.28006836 50.34355469 41.46044922 49.75585938 C37.32817707 46.80693089 33.16287913 43.90547698 29 41 C-9.55812625 14.03456155 -9.55812625 14.03456155 -12 11 C-11.93024936 7.16371497 -11.51338864 4.77008296 -9.375 1.5625 C-5.94055346 -0.6970043 -4.08961571 -0.50358724 0 0 Z " fill="#F70402" transform="translate(1036,604)"/>
<path d="M0 0 C0.68191406 0.54011719 1.36382812 1.08023437 2.06640625 1.63671875 C21.29481009 17.1774835 31.15211925 43.64301418 33.69921875 67.5703125 C33.79847656 68.70210937 33.89773438 69.83390625 34 71 C34.10957031 72.04929687 34.21914063 73.09859375 34.33203125 74.1796875 C37.3411365 106.35705296 32.96619353 142.01367284 11.8203125 167.828125 C11.21960938 168.54484375 10.61890625 169.2615625 10 170 C9.44054687 170.71671875 8.88109375 171.4334375 8.3046875 172.171875 C-1.27298477 183.86409829 -14.18806744 191.37182213 -28 197 C-29.07121094 197.46019531 -30.14242187 197.92039062 -31.24609375 198.39453125 C-60.60411661 210.0602042 -97.38965839 208.71841547 -128 203 C-128.71816895 202.87189941 -129.43633789 202.74379883 -130.17626953 202.61181641 C-134.47454534 201.83903591 -138.73833541 200.95249186 -143 200 C-144.24265625 199.72929688 -145.4853125 199.45859375 -146.765625 199.1796875 C-155.84435933 197.15564067 -155.84435933 197.15564067 -157 196 C-157.09786525 193.26884693 -157.12993454 190.56298919 -157.12025452 187.83140564 C-157.12110894 186.96483811 -157.12196337 186.09827059 -157.12284368 185.20544344 C-157.12450115 182.27878749 -157.11897278 179.35218785 -157.11352539 176.42553711 C-157.11324355 174.33674623 -157.11340119 172.24795525 -157.1139679 170.15916443 C-157.11425599 164.46931386 -157.1083573 158.77948417 -157.10139394 153.08963847 C-157.09516243 147.15054475 -157.09455676 141.21145061 -157.09336853 135.27235413 C-157.09025461 124.01718838 -157.08204042 112.76203229 -157.07201904 101.50687081 C-157.06085977 88.69693543 -157.05534792 75.8869996 -157.05032361 63.07706058 C-157.03985785 36.71803502 -157.02225725 10.35901805 -157 -16 C-154.6555153 -16.63497645 -152.31038834 -17.26739774 -149.96484375 -17.8984375 C-149.31173218 -18.07560303 -148.65862061 -18.25276855 -147.98571777 -18.43530273 C-101.41700603 -30.93600598 -38.49556054 -34.17960258 0 0 Z " fill="#F80302" transform="translate(407,1064)"/>
<path d="M0 0 C1.65792899 1.29718737 3.30530738 2.60807498 4.9375 3.9375 C5.56785156 4.40542969 6.19820312 4.87335938 6.84765625 5.35546875 C23.15715401 18.02412191 31.99553674 41.12934545 34.9375 60.9375 C35.30640919 65.70724091 35.41305653 70.43187381 35.38354492 75.21386719 C35.37503038 77.3050399 35.40394813 79.39346886 35.43554688 81.484375 C35.55348789 104.37414534 26.96014307 126.72220291 11.9375 143.9375 C11.41800781 144.55238281 10.89851562 145.16726563 10.36328125 145.80078125 C-2.94354576 160.38130959 -24.39494731 168.00243826 -43.69970703 169.08544922 C-69.6728688 169.99448727 -92.37888768 164.77011739 -112.15234375 147.06640625 C-130.83205001 129.2471855 -138.65512508 103.80144007 -139.51977539 78.58642578 C-139.90257557 52.61288703 -131.78193546 28.22225662 -114.0625 8.9375 C-84.04769274 -19.64803072 -34.08399921 -24.28601034 0 0 Z " fill="#F80403" transform="translate(611.0625,1102.0625)"/>
<path d="M0 0 C1.65647135 1.29904822 3.30370655 2.61004282 4.9375 3.9375 C5.865625 4.60458984 5.865625 4.60458984 6.8125 5.28515625 C22.08394701 16.84479322 30.90251526 38.8986013 34.1875 57 C37.04170008 80.43586304 35.59875654 103.58426284 24.9375 124.9375 C24.45925781 125.90558594 23.98101563 126.87367188 23.48828125 127.87109375 C17.08788832 139.78853241 7.65073846 150.09725751 -4.0625 156.9375 C-4.95066406 157.45699219 -5.83882812 157.97648437 -6.75390625 158.51171875 C-28.28721625 170.14263585 -56.1210962 172.8222127 -79.5703125 165.90234375 C-100.81019833 158.76886157 -117.29761985 145.6093622 -128.0625 125.9375 C-129.96140709 122.00742363 -131.57342557 118.0383637 -133.0625 113.9375 C-133.48789063 112.87402344 -133.48789063 112.87402344 -133.921875 111.7890625 C-143.19168249 87.10110581 -140.94554937 57.96316054 -131.0625 33.9375 C-122.192376 14.44923081 -106.3659875 -1.72713926 -86.20263672 -9.31591797 C-57.6967561 -19.26013231 -25.14569868 -17.91716677 0 0 Z " fill="#F80403" transform="translate(1721.0625,1102.0625)"/>
<path d="M0 0 C26.60428982 -0.66312621 54.90424875 0.24882618 75.81396484 18.95751953 C83.70665667 27.32516981 88.08458581 37.9918936 90.62646484 49.08251953 C90.77833252 49.74437256 90.9302002 50.40622559 91.08666992 51.08813477 C94.19344455 66.64046764 93.32376306 83.06474208 93.28662109 98.83251953 C93.28475191 101.18619761 93.28333038 103.53987608 93.28233337 105.89355469 C93.27854757 112.03528959 93.26875172 118.17700017 93.25762939 124.31872559 C93.24551331 131.71625262 93.24099426 139.11378787 93.23517609 146.51132202 C93.2255372 157.70173801 93.20635327 168.89210083 93.18896484 180.08251953 C70.74896484 180.08251953 48.30896484 180.08251953 25.18896484 180.08251953 C25.15158203 172.04134766 25.11419922 164.00017578 25.07568359 155.71533203 C25.04539598 150.61114422 25.0142428 145.50699094 24.97998047 140.40283203 C24.9257193 132.30714637 24.87416684 124.21153215 24.8425293 116.11572266 C24.81699756 109.58632006 24.7760271 103.05711849 24.72577858 96.52785873 C24.70913612 94.04092149 24.69760558 91.55394444 24.69135094 89.06695938 C24.68168164 85.57466938 24.65358714 82.08296501 24.62133789 78.59082031 C24.62277298 77.57013962 24.62420807 76.54945892 24.62568665 75.49784851 C24.53753034 68.71607961 24.15290922 61.07277706 19.96018505 55.42825508 C13.73920008 50.70168263 5.54149952 51.60770058 -1.81103516 51.08251953 C-1.81103516 93.65251953 -1.81103516 136.22251953 -1.81103516 180.08251953 C-24.25103516 180.08251953 -46.69103516 180.08251953 -69.81103516 180.08251953 C-69.81103516 125.63251953 -69.81103516 71.18251953 -69.81103516 15.08251953 C-52.23994484 6.97278554 -36.85143763 3.08696961 -17.81103516 1.08251953 C-15.91998047 0.88335938 -15.91998047 0.88335938 -13.99072266 0.68017578 C-9.32720258 0.29243436 -4.67530906 0.13724635 0 0 Z " fill="#F80302" transform="translate(739.81103515625,1086.91748046875)"/>
<path d="M0 0 C16.89080657 14.42332428 25.49207099 36.1070551 27.34375 57.90234375 C27.63034569 64.02407588 27.5357762 70.15140189 27.46875 76.27734375 C27.45868716 77.89973398 27.44956722 79.52213034 27.44140625 81.14453125 C27.41968419 85.06395758 27.38534219 88.98308 27.34375 92.90234375 C12.0581145 94.16986345 -3.22564425 95.19467122 -18.54003906 96.02478027 C-29.0025855 96.59450606 -39.42896834 97.34745445 -49.86572266 98.28857422 C-57.15082797 98.92166761 -64.3411074 99.13416165 -71.65625 98.90234375 C-67.28364986 106.09597623 -62.31023757 109.30079167 -54.3984375 112.0234375 C-50.20263603 113.00888148 -46.44408728 113.20682056 -42.15625 113.15234375 C-41.36726318 113.14485107 -40.57827637 113.1373584 -39.76538086 113.12963867 C-24.96710686 112.86301652 -9.58651639 110.31018959 4.2109375 104.74609375 C6.34375 103.90234375 6.34375 103.90234375 9.34375 103.90234375 C12.39223071 115.40005736 15.40168897 126.90796207 18.21875 138.46484375 C18.54105591 139.75588013 18.54105591 139.75588013 18.86987305 141.07299805 C19.92157116 145.447037 20.59374725 149.36562888 20.34375 153.90234375 C9.81560946 158.10239982 -0.59764264 161.41955446 -11.65625 163.90234375 C-12.53539062 164.11761719 -13.41453125 164.33289062 -14.3203125 164.5546875 C-21.99888346 166.31382499 -29.81020915 166.64086003 -37.65625 166.90234375 C-38.5951709 166.93634277 -39.5340918 166.9703418 -40.50146484 167.00537109 C-68.70349857 167.89729606 -95.13218483 163.06450807 -116.46875 143.17578125 C-133.60193715 125.36950461 -141.04943933 101.5472525 -140.97192383 77.22460938 C-140.96877509 75.16872457 -140.99227485 73.11430089 -141.01757812 71.05859375 C-141.13824036 45.90408899 -132.00829107 22.97446179 -114.57421875 4.72265625 C-84.83291189 -23.63918368 -31.80434464 -25.11607804 0 0 Z " fill="#F80403" transform="translate(1282.65625,1104.09765625)"/>
<path d="M0 0 C55.77 0 111.54 0 169 0 C169 18.15 169 36.3 169 55 C152.83 55 136.66 55 120 55 C120 111.43 120 167.86 120 226 C96.57 226 73.14 226 49 226 C49 169.57 49 113.14 49 55 C32.83 55 16.66 55 0 55 C0 36.85 0 18.7 0 0 Z " fill="#F80403" transform="translate(945,1041)"/>
<path d="M0 0 C22.77 0 45.54 0 69 0 C69.029729 8.52521484 69.029729 8.52521484 69.06005859 17.22265625 C69.12692018 35.98618518 69.20446078 54.7496587 69.28752708 73.51312256 C69.33763607 84.89105893 69.38407924 96.26898817 69.421875 107.64697266 C69.45482938 117.56470868 69.49467972 127.482389 69.54279006 137.40006351 C69.5680207 142.65074989 69.58981218 147.90139948 69.60334396 153.15213013 C69.6161954 158.09657405 69.63828315 163.04089157 69.66738319 167.98526573 C69.67643486 169.79763101 69.68214356 171.61001663 69.68421364 173.42240334 C69.68755325 175.90267571 69.70307627 178.3825934 69.7215271 180.86279297 C69.718625 181.93092271 69.718625 181.93092271 69.71566427 183.02063084 C69.8170002 192.17338524 72.34271886 200.63158085 78.25 207.6875 C86.36221237 214.50913313 94.9450166 217.13237731 105 220 C103.64043269 226.7226846 101.74586508 233.04609679 99.4375 239.5 C99.12103516 240.40492188 98.80457031 241.30984375 98.47851562 242.2421875 C96.13757622 248.86242378 96.13757622 248.86242378 95 250 C90.33521132 250.23531575 85.66810062 250.09620227 81 250 C79.32357422 249.97486328 79.32357422 249.97486328 77.61328125 249.94921875 C55.3940661 249.06247698 31.78693569 244.4379855 15 229 C0.11362659 212.08864197 -0.15881428 191.79466608 -0.11352539 170.51513672 C-0.11324296 168.65161643 -0.11340235 166.78809603 -0.1139679 164.92457581 C-0.11425368 159.89019472 -0.1083924 154.85583768 -0.10139394 149.82146215 C-0.09512389 144.55107083 -0.09455372 139.2806789 -0.09336853 134.01028442 C-0.09026596 124.04101737 -0.08206708 114.07176134 -0.07201904 104.10249913 C-0.0608245 92.74819212 -0.05533904 81.39388458 -0.05032361 70.03957343 C-0.03988355 46.69304144 -0.02155145 23.34652456 0 0 Z " fill="#F80504" transform="translate(1460,1017)"/>
<path d="M0 0 C22.44 0 44.88 0 68 0 C68.01458252 5.57165039 68.02916504 11.14330078 68.04418945 16.88378906 C68.09454412 35.30005507 68.16099148 53.7162371 68.23571491 72.13241959 C68.28062378 83.29725448 68.32004977 94.46205782 68.34643555 105.62695312 C68.36945538 115.36163149 68.40289789 125.09620961 68.44870156 134.8308084 C68.47258003 139.98215313 68.49134401 145.13339891 68.49761391 150.28479767 C68.50368911 155.14066054 68.52377653 159.99627038 68.55427551 164.85203934 C68.56301683 166.6272442 68.56678648 168.40248218 68.56500816 170.17770767 C68.49659799 189.3191807 68.49659799 189.3191807 77 206 C84.4986941 213.34174469 94.91537168 216.86671324 105 219 C104.33372522 222.82263641 103.26037893 226.31304378 101.93359375 229.95703125 C101.53076172 231.06884766 101.12792969 232.18066406 100.71289062 233.32617188 C100.29201172 234.47666016 99.87113281 235.62714844 99.4375 236.8125 C98.80038086 238.56723633 98.80038086 238.56723633 98.15039062 240.35742188 C97.10344692 243.23945793 96.05321116 246.12024968 95 249 C77.16014305 249.23996818 59.09032886 248.42963555 42 243 C41.01386719 242.70222656 40.02773437 242.40445312 39.01171875 242.09765625 C24.73766081 237.39347591 13.2181164 229.52524031 6.31640625 216.00390625 C1.87283306 205.86412053 -0.16430507 195.87941032 -0.12025452 184.83119202 C-0.12110894 184.03708544 -0.12196337 183.24297886 -0.12284368 182.42480844 C-0.12448317 179.77935738 -0.1190023 177.13397055 -0.11352539 174.48852539 C-0.11324316 172.58603924 -0.11340195 170.68355298 -0.1139679 168.78106689 C-0.11425448 163.62667755 -0.10838018 158.47231153 -0.10139394 153.3179276 C-0.09513729 147.92740196 -0.09455477 142.53687576 -0.09336853 137.14634705 C-0.09026203 126.94323484 -0.08205782 116.74013336 -0.07201904 106.53702587 C-0.06083675 94.91919002 -0.05534212 83.30135365 -0.05032361 71.68351376 C-0.03987465 47.78900186 -0.02153763 23.89450466 0 0 Z " fill="#F80302" transform="translate(1332,1018)"/>
<path d="M0 0 C7.22556575 6.55267493 12.39661878 17.4523746 13.07348633 27.14794922 C13.15533869 30.23806588 13.15948902 33.31909266 13.13671875 36.41015625 C13.14832031 37.97926758 13.14832031 37.97926758 13.16015625 39.58007812 C13.12967602 51.70358827 9.86473993 63.24457267 2 72.75390625 C-7.94371783 81.95134099 -18.8859195 84.00063635 -32.06640625 83.74609375 C-41.57856915 83.2975744 -49.39403005 79.07759127 -56.11328125 72.47265625 C-67.99069561 59.11350505 -68.30522239 43.44677826 -67.38818359 26.39550781 C-66.2550764 14.34794184 -59.4109023 4.63617736 -50.32421875 -2.98828125 C-34.71883514 -13.85139281 -14.72932483 -10.64540852 0 0 Z " fill="#F80504" transform="translate(1137.11328125,1371.52734375)"/>
<path d="M0 0 C5.03611281 5.5999281 7.38701473 11.08738093 7.27734375 18.59375 C6.45777262 25.70439531 2.09973942 30.36387325 -3 35 C-2.113125 35.53625 -1.22625 36.0725 -0.3125 36.625 C4.71771954 39.99037146 8.09262184 44.2022426 10 50 C11.0737569 58.62396333 10.24262 65.91989309 5 73 C-1.27472114 79.85187709 -10.80635113 82.52090317 -19.81640625 83.35205078 C-23.12591885 83.44402751 -26.42078452 83.47359126 -29.73095703 83.41162109 C-31.76255098 83.37477235 -33.79232259 83.3706059 -35.82421875 83.37109375 C-42.86268859 83.30880641 -49.20903387 82.85843312 -56 81 C-57.32 80.67 -58.64 80.34 -60 80 C-60 52.28 -60 24.56 -60 -4 C-41.39568855 -10.20143715 -16.92976124 -11.54634076 0 0 Z " fill="#F80403" transform="translate(769,1371)"/>
<path d="M0 0 C26.85146444 0 26.85146444 0 37 9 C43.30469944 16.41873371 47.03871827 24.27110484 48.6640625 33.84375 C48.85326767 34.94547546 48.85326767 34.94547546 49.04629517 36.06945801 C50.2229571 43.48001682 50.45605633 50.81048231 50.39111328 58.30224609 C50.37499776 60.5003049 50.39110264 62.6965264 50.41015625 64.89453125 C50.4219967 72.43831257 49.93733346 79.73509045 48.65625 87.17578125 C48.53897552 87.86293213 48.42170105 88.55008301 48.3008728 89.25805664 C47.05667052 95.80947903 44.50236128 101.3692807 41 107 C40.43152344 107.91845703 40.43152344 107.91845703 39.8515625 108.85546875 C33.80638938 117.19437776 23.62115182 120.26819267 14 122 C9.38 122 4.76 122 0 122 C0 81.74 0 41.48 0 0 Z " fill="#FEFDFD" transform="translate(320,1093)"/>
<path d="M0 0 C6.15088837 6.17549192 8.2854306 12.69809884 8.4375 21.375 C8.32058157 28.01986422 7.62562995 32.17371487 3 37 C0.10016998 39.79799652 -2.8830965 42.44671957 -6 45 C-5.55011719 45.68320313 -5.10023437 46.36640625 -4.63671875 47.0703125 C2.47602516 58.21693722 9.80879567 70.42638701 14 83 C4.76 83 -4.48 83 -14 83 C-19.125 72.1875 -19.125 72.1875 -20.69970703 68.85229492 C-22.1104584 65.88992769 -23.54748553 62.94211642 -25 60 C-25.5165918 58.95021973 -26.03318359 57.90043945 -26.56542969 56.81884766 C-27.07750977 55.82288574 -27.58958984 54.82692383 -28.1171875 53.80078125 C-28.57464355 52.90141846 -29.03209961 52.00205566 -29.50341797 51.07543945 C-30.98820012 48.54604641 -30.98820012 48.54604641 -35 48 C-35 59.55 -35 71.1 -35 83 C-43.25 83 -51.5 83 -60 83 C-60 54.29 -60 25.58 -60 -4 C-41.33579287 -9.59926214 -16.74360685 -12.10445464 0 0 Z " fill="#F80706" transform="translate(1042,1371)"/>
<path d="M0 0 C1.11761719 0.40025391 1.11761719 0.40025391 2.2578125 0.80859375 C8.99573839 3.69078638 13.99770091 9.12239647 16.9375 15.8125 C19.28374106 23.43035863 18.79397178 30.06935224 15.5 37.3125 C12.59345235 42.65971326 9.2425598 45.96623443 4 49 C5.58882166 53.37344068 7.80294309 57.29912896 10.125 61.3125 C13.42244838 67.09367923 16.57535585 72.92722481 19.5625 78.875 C19.90877441 79.55860596 20.25504883 80.24221191 20.61181641 80.9465332 C23 85.75160746 23 85.75160746 23 88 C14.09 88 5.18 88 -4 88 C-6.2275 83.7615625 -6.2275 83.7615625 -8.5 79.4375 C-9.41901676 77.69908441 -10.33824344 75.96077976 -11.2578125 74.22265625 C-12.97179636 70.97469869 -14.65624075 67.71526412 -16.3046875 64.43359375 C-16.65595703 63.74531494 -17.00722656 63.05703613 -17.36914062 62.34790039 C-18.02726197 61.05705607 -18.67486964 59.76078371 -19.31054688 58.45874023 C-20.27836115 56.50319085 -20.27836115 56.50319085 -22 54 C-23.32 53.67 -24.64 53.34 -26 53 C-26 64.22 -26 75.44 -26 87 C-33.92 87 -41.84 87 -50 87 C-50 58.62 -50 30.24 -50 1 C-35.25447878 -4.89820849 -14.97811333 -5.38932115 0 0 Z " fill="#F80504" transform="translate(943,1366)"/>
<path d="M0 0 C7.92 0 15.84 0 24 0 C29.45706131 13.44668145 34.60199755 26.94442027 39.4375 40.625 C40.08908637 42.46035311 40.74086263 44.29563882 41.39282227 46.13085938 C43.26898006 51.4180777 45.13602701 56.70847555 47 62 C47.26458008 62.75035522 47.52916016 63.50071045 47.80175781 64.27380371 C49.35484691 68.67981727 50.89976896 73.08859634 52.4375 77.5 C52.80866943 78.56041504 53.17983887 79.62083008 53.56225586 80.71337891 C53.89104736 81.66390137 54.21983887 82.61442383 54.55859375 83.59375 C54.84017334 84.40521484 55.12175293 85.21667969 55.41186523 86.05273438 C56 88 56 88 56 90 C47.09 90 38.18 90 29 90 C28.34 87.56625 27.68 85.1325 27 82.625 C26.79117188 81.86010254 26.58234375 81.09520508 26.3671875 80.30712891 C25 75.22222222 25 75.22222222 25 73 C15.76 73 6.52 73 -3 73 C-3.66 75.97 -4.32 78.94 -5 82 C-5.99 84.64 -6.98 87.28 -8 90 C-15.59 90 -23.18 90 -31 90 C-29.87462775 82.12239423 -29.87462775 82.12239423 -28.85522461 79.1081543 C-28.62607864 78.42190979 -28.39693268 77.73566528 -28.1608429 77.02862549 C-27.91053818 76.30117126 -27.66023346 75.57371704 -27.40234375 74.82421875 C-27.13612717 74.03706482 -26.86991058 73.24991089 -26.59562683 72.43890381 C-25.71715166 69.85244961 -24.82809316 67.26980468 -23.9375 64.6875 C-23.48271271 63.3591362 -23.48271271 63.3591362 -23.01873779 62.00393677 C-15.86630259 41.1387387 -7.98298983 20.55879069 0 0 Z " fill="#F80706" transform="translate(639,1364)"/>
<path d="M0 0 C7.92 0 15.84 0 24 0 C31.67250163 20.16616386 39.23642037 40.36494507 46.37960815 60.72567749 C47.04047112 62.60910756 47.70347896 64.49178646 48.36868286 66.37368774 C49.30230887 69.01885858 50.22683428 71.66702608 51.1484375 74.31640625 C51.56147881 75.48275604 51.56147881 75.48275604 51.98286438 76.67266846 C52.23521347 77.40531921 52.48756256 78.13796997 52.74755859 78.89282227 C52.9665683 79.52052017 53.185578 80.14821808 53.41122437 80.79493713 C54.2144808 83.80326635 54.55965319 86.91757234 55 90 C46.42 90 37.84 90 29 90 C25 76.375 25 76.375 25 73 C15.76 73 6.52 73 -3 73 C-4.27523882 78.21963939 -4.27523882 78.21963939 -5.54272461 83.44116211 C-6.88888889 88.88888889 -6.88888889 88.88888889 -8 90 C-9.78071246 90.08726223 -11.5648314 90.10699041 -13.34765625 90.09765625 C-14.42724609 90.09443359 -15.50683594 90.09121094 -16.61914062 90.08789062 C-17.75544922 90.07951172 -18.89175781 90.07113281 -20.0625 90.0625 C-21.20267578 90.05798828 -22.34285156 90.05347656 -23.51757812 90.04882812 C-26.34510604 90.03699746 -29.17251896 90.01967618 -32 90 C-30.13576575 82.88246674 -28.04864758 75.90063344 -25.62890625 68.953125 C-25.31014526 68.03043823 -24.99138428 67.10775146 -24.66296387 66.15710449 C-23.63420771 63.18640142 -22.59900379 60.21800802 -21.5625 57.25 C-21.03400955 55.73146423 -21.03400955 55.73146423 -20.49484253 54.18225098 C-5.33262781 10.66525562 -5.33262781 10.66525562 0 0 Z " fill="#F80706" transform="translate(823,1364)"/>
<path d="M0 0 C18.15 0 36.3 0 55 0 C55 6.27 55 12.54 55 19 C45.1 19 35.2 19 25 19 C25 24.28 25 29.56 25 35 C33.58 35 42.16 35 51 35 C51 40.94 51 46.88 51 53 C42.42 53 33.84 53 25 53 C25 58.94 25 64.88 25 71 C35.56 71 46.12 71 57 71 C57 77.27 57 83.54 57 90 C38.19 90 19.38 90 0 90 C0 60.3 0 30.6 0 0 Z " fill="#F80605" transform="translate(1248,1364)"/>
<path d="M0 0 C-0.69861498 3.84951112 -1.69037658 7.52165032 -2.875 11.25 C-3.20242188 12.30703125 -3.52984375 13.3640625 -3.8671875 14.453125 C-4.24101563 15.29359375 -4.61484375 16.1340625 -5 17 C-8 18 -8 18 -11.4375 16.5625 C-16.77905422 14.3980784 -22.3167015 14.35168299 -28 15 C-28.99 15.66 -29.98 16.32 -31 17 C-31.13478487 20.33054374 -31.13478487 20.33054374 -30 24 C-26.30290545 26.94258546 -22.41113088 28.81150301 -18.15625 30.8046875 C-9.50379442 34.8976259 -2.37041451 38.3399686 2.140625 47.25390625 C4.3795104 54.40816277 4.18705019 64.28625198 1.3125 71.1875 C-2.54942999 78.31513219 -8.80986258 83.0382087 -16.375 85.75 C-28.1213379 88.98731903 -43.8081072 88.26942967 -54.75 82.875 C-55.8225 82.25625 -56.895 81.6375 -58 81 C-57.39297368 74.3227105 -55.22368606 68.29872004 -53 62 C-49.78699799 62.57654914 -46.90738289 63.3691478 -43.875 64.5625 C-37.45127944 66.76830019 -30.53288448 66.88829295 -24 65 C-23.64550633 61.92772153 -23.51602018 59.06343268 -24 56 C-26.15947304 53.8988911 -27.32790334 53.16489109 -30 52 C-30.87011719 51.60296875 -31.74023438 51.2059375 -32.63671875 50.796875 C-34.54902961 49.93072602 -36.46442911 49.07136484 -38.3828125 48.21875 C-46.66223422 44.3632581 -52.187725 38.97341251 -56.046875 30.7421875 C-58.6042756 23.3844202 -57.48536388 16.276857 -54.32421875 9.2890625 C-50.25878042 2.26149064 -43.91966313 -2.28849808 -36.1574707 -4.53271484 C-24.19110341 -7.12450244 -10.79348738 -5.54129933 0 0 Z " fill="#F80605" transform="translate(1382,1368)"/>
<path d="M0 0 C21.45 0 42.9 0 65 0 C65 6.27 65 12.54 65 19 C58.4 19 51.8 19 45 19 C45 42.43 45 65.86 45 90 C36.75 90 28.5 90 20 90 C20 66.57 20 43.14 20 19 C13.4 19 6.8 19 0 19 C0 12.73 0 6.46 0 0 Z " fill="#F80504" transform="translate(1162,1364)"/>
<path d="M0 0 C1.16503906 1.69360352 1.16503906 1.69360352 1.16503906 5.19360352 C0.16503906 8.69360352 0.16503906 8.69360352 -1.69677734 10.28198242 C-6.33218526 12.36708656 -11.04564147 12.99656025 -16.04589844 13.77954102 C-17.15314774 13.9614801 -18.26039703 14.14341919 -19.40119934 14.33087158 C-23.00256785 14.92015471 -26.60614646 15.49448662 -30.20996094 16.06860352 C-32.70010292 16.47310662 -35.19009296 16.87854626 -37.67993164 17.28491211 C-43.69612241 18.26451737 -49.71405894 19.23279808 -55.73284912 20.19628906 C-59.75347616 20.8408551 -63.77286572 21.49288349 -67.79199219 22.14672852 C-72.55933362 22.92060304 -77.32754986 23.68864234 -82.09667969 24.45141602 C-92.77318201 26.16090793 -103.44384573 27.90642305 -114.11529541 29.64712524 C-123.44853579 31.16942595 -132.78209435 32.68916198 -142.12011719 34.18188477 C-142.83481171 34.29631927 -143.54950623 34.41075378 -144.28585815 34.52865601 C-147.56358248 35.05342853 -150.84154766 35.57646773 -154.12011719 36.09594727 C-159.10108291 36.89245305 -164.062137 37.71424984 -169.00292969 38.73266602 C-174.16872892 39.79499398 -179.36118315 40.54170843 -184.58496094 41.25610352 C-186.39234068 41.5067714 -188.19963488 41.75805692 -190.00683594 42.01000977 C-190.84754639 42.12658936 -191.68825684 42.24316895 -192.55444336 42.36328125 C-194.41439133 42.63268598 -196.26845502 42.94246218 -198.12011719 43.26391602 C-200.94243736 43.71061417 -203.66636702 43.93041902 -206.52246094 44.00610352 C-207.45445312 44.04348633 -208.38644531 44.08086914 -209.34667969 44.11938477 C-211.83496094 43.69360352 -211.83496094 43.69360352 -213.67089844 41.86547852 C-214.83496094 39.69360352 -214.83496094 39.69360352 -214.77246094 36.63110352 C-213.66151936 33.15015325 -212.92028014 32.53603688 -209.83496094 30.69360352 C-206.93310547 29.94506836 -206.93310547 29.94506836 -203.46777344 29.40454102 C-202.82297531 29.30035355 -202.17817719 29.19616608 -201.51383972 29.08882141 C-199.3307351 28.73832994 -197.14545902 28.40382053 -194.95996094 28.06860352 C-193.36885485 27.81573592 -191.77795896 27.56154275 -190.18725586 27.30615234 C-187.58629194 26.88884817 -184.98518869 26.47262255 -182.38340759 26.06044006 C-175.39567515 24.95253549 -168.41694914 23.79569678 -161.44042969 22.61938477 C-135.59408337 18.26487556 -109.72866573 14.05911609 -83.83129883 10.01879883 C-72.21767648 8.20269287 -60.61573778 6.33835989 -49.03027344 4.34985352 C-47.92777252 4.16157486 -46.82527161 3.9732962 -45.68936157 3.77931213 C-40.50507163 2.89319848 -35.3230268 1.9966928 -30.14404297 1.08007812 C-4.70013047 -3.34624776 -4.70013047 -3.34624776 0 0 Z " fill="#F2C123" transform="translate(1113.8349609375,749.306396484375)"/>
<path d="M0 0 C1.5625 1.9375 1.5625 1.9375 2 5.4375 C1.5625 8.9375 1.5625 8.9375 0.31054688 10.5871582 C-1.78248491 12.20399602 -3.24542718 12.57365066 -5.84375 13.04296875 C-6.78710205 13.21731445 -7.7304541 13.39166016 -8.70239258 13.57128906 C-9.76997803 13.75401367 -10.83756348 13.93673828 -11.9375 14.125 C-13.68099731 14.4358252 -13.68099731 14.4358252 -15.4597168 14.75292969 C-29.90066745 17.27604622 -44.39804531 19.47128433 -58.88427734 21.71582031 C-74.62956064 24.15911774 -90.35001217 26.72950517 -106.0625 29.375 C-128.00295485 33.06757908 -149.9672236 36.58660205 -171.94970703 40.01928711 C-173.10574936 40.20019897 -174.26179169 40.38111084 -175.4528656 40.56750488 C-177.59480249 40.90246965 -179.73692729 41.23623631 -181.87928772 41.56848145 C-187.59096344 42.46129931 -193.27553941 43.4403962 -198.9523468 44.53443909 C-202.7087945 45.14368814 -206.67659281 45.66617577 -210.4375 44.9375 C-212.16015625 43.63671875 -212.16015625 43.63671875 -213.4375 41.9375 C-213.875 38.4375 -213.875 38.4375 -213.4375 34.9375 C-210.40858918 31.93691356 -207.43672619 31.27359122 -203.31640625 30.5078125 C-202.67465958 30.38753693 -202.0329129 30.26726135 -201.37171936 30.14334106 C-191.62737948 28.362153 -181.82440287 26.89549086 -172.03619385 25.37985229 C-151.35592936 22.17516115 -130.69905146 18.84961602 -110.0625 15.375 C-90.01100879 12.00039115 -69.94040976 8.77321637 -49.84423828 5.67553711 C-47.87658504 5.37120607 -45.90897354 5.06660503 -43.94140625 4.76171875 C-42.52142334 4.54230873 -42.52142334 4.54230873 -41.07275391 4.31846619 C-36.07341335 3.53723903 -31.08618977 2.70877445 -26.10498047 1.81884766 C-25.06599106 1.63344925 -24.02700165 1.44805084 -22.95652771 1.2570343 C-20.98026936 0.90114607 -19.0049758 0.53983965 -17.03089905 0.17204285 C-4.71235155 -2.05410196 -4.71235155 -2.05410196 0 0 Z " fill="#F2C123" transform="translate(1119.4375,788.0625)"/>
<path d="M0 0 C1.89109447 2.5829583 1.60889929 4.56630571 1.22119141 7.66796875 C-4.69750479 15.63516301 -25.828699 15.56213248 -35.15380859 17.04296875 C-37.09870104 17.35528829 -39.0435244 17.66803839 -40.98828125 17.98120117 C-45.751224 18.74732451 -50.51487223 19.50894251 -55.27880859 20.26885986 C-60.90472928 21.16700184 -66.52923745 22.07391927 -72.15380859 22.98046875 C-73.32041016 23.16810791 -74.48701172 23.35574707 -75.68896484 23.54907227 C-87.85517999 25.50999262 -100.01574794 27.50529687 -112.17639351 29.50042439 C-116.15843507 30.1536168 -120.14067354 30.80559193 -124.12308693 31.4565134 C-127.44329424 31.99922153 -130.76341647 32.54244879 -134.08349609 33.0859375 C-134.74167202 33.19367178 -135.39984795 33.30140606 -136.0779686 33.41240501 C-144.28395471 34.75648447 -152.48662499 36.11896593 -160.68545532 37.50608826 C-165.16552407 38.2634644 -169.64681348 39.01346144 -174.12823486 39.76278687 C-176.20045918 40.11150297 -178.27205841 40.46395777 -180.34295654 40.82046509 C-204.50788264 44.97878795 -204.50788264 44.97878795 -211.77880859 43.66796875 C-214.10924417 40.17231539 -214.36644104 38.78139585 -213.77880859 34.66796875 C-210.17974457 31.10336027 -207.22886913 30.01914038 -202.28417969 29.22338867 C-201.64935386 29.11685848 -201.01452803 29.01032829 -200.36046505 28.90056992 C-198.25983791 28.55183 -196.15640441 28.22513493 -194.05224609 27.8984375 C-192.56262049 27.65560879 -191.07321869 27.41140364 -189.58403015 27.16590881 C-185.60158904 26.51324203 -181.61636214 25.87940354 -177.63032913 25.24909973 C-173.48586389 24.59035699 -169.3442753 23.91401347 -165.20239258 23.23925781 C-158.66501197 22.176302 -152.12621707 21.12260441 -145.5859375 20.07763672 C-138.44334053 18.93640742 -131.30326195 17.78068539 -124.16552734 16.609375 C-117.42837799 15.50461345 -110.69032632 14.40585834 -103.95068359 13.31640625 C-95.37044635 11.92898617 -86.79287841 10.5255388 -78.2157135 9.1192627 C-69.90470063 7.75699962 -61.59260444 6.40149791 -53.27964783 5.05114746 C-47.94468097 4.18434196 -42.61072713 3.31176806 -37.27781677 2.43240356 C-34.32627305 1.94757148 -31.37360465 1.46992362 -28.42050171 0.99468994 C-26.48926081 0.68181273 -24.55941019 0.36039005 -22.62963867 0.03857422 C-3.93105127 -2.9437024 -3.93105127 -2.9437024 0 0 Z " fill="#F2C123" transform="translate(1106.77880859375,709.33203125)"/>
<path d="M0 0 C7.23024593 5.57008217 9.70579153 14.18833408 11.0078125 22.90234375 C11.28618756 27.50996787 11.28741022 32.10006559 11.2578125 36.71484375 C11.26941406 38.50631836 11.26941406 38.50631836 11.28125 40.33398438 C11.25477182 52.49408955 10.69745083 64.19148829 2.5703125 73.77734375 C-1.11596479 76.83425663 -3.68160905 77.75937156 -8.4296875 78.27734375 C-13.65723282 77.72707582 -16.50537328 75.5016091 -20.02905273 71.71142578 C-26.52230494 62.42012371 -26.62259628 49.11497142 -26.45874023 38.14550781 C-26.42940008 36.0063887 -26.43827609 33.86970993 -26.45117188 31.73046875 C-26.4341247 19.96494729 -24.84098355 10.04003523 -16.9921875 0.90234375 C-11.76428915 -3.04762389 -5.71701096 -3.14996094 0 0 Z " fill="#FEFCFC" transform="translate(1676.9921875,1140.09765625)"/>
<path d="M0 0 C6.99857124 5.79881617 9.11708365 14.47337299 9.9934082 23.14282227 C10.38047801 28.46685788 10.41374466 33.78895654 10.4375 39.125 C10.458125 40.27162109 10.47875 41.41824219 10.5 42.59960938 C10.54609957 52.78185209 9.35359514 64.28273505 3.1875 72.8125 C-2.03456489 76.96883736 -6.14619976 78.3774407 -12.8125 77.8125 C-19.36227241 74.66860924 -22.36030273 69.29777345 -25.0625 62.8125 C-27.10965239 54.62389046 -26.9955621 46.39206205 -27 38 C-27.01224609 36.79279297 -27.02449219 35.58558594 -27.03710938 34.34179688 C-27.05560916 22.93976551 -26.14307109 12.57137463 -19.8125 2.8125 C-13.85761623 -3.00060082 -7.47028876 -3.15412192 0 0 Z " fill="#FEFCFC" transform="translate(567.8125,1140.1875)"/>
<path d="M0 0 C5.05990376 2.73074171 7.72227552 6.49805221 9.4921875 11.875 C12.15034682 22.99837438 12.77789223 36.79795167 6.828125 47.01171875 C3.53499557 51.20944237 0.84204897 52.72195487 -4.3125 53.5 C-9.39214566 52.81123449 -11.78676407 50.9131487 -15 47 C-21.29495915 37.89082382 -20.1600268 24.13541663 -18.45703125 13.66015625 C-16.98832941 8.26409699 -14.8118533 4.10888998 -10.25 0.6875 C-6.73544509 -0.38639178 -3.58214697 -0.74850832 0 0 Z " fill="#FEFCFC" transform="translate(1114,1382)"/>
<path d="M0 0 C5.50687309 4.16373331 8.20797723 9.16488617 9.5625 15.9375 C9.58922908 17.93732138 9.59335187 19.93773797 9.5625 21.9375 C5.08372488 22.27623468 0.60442703 22.60750737 -3.875 22.9375 C-5.13505859 23.03289062 -6.39511719 23.12828125 -7.69335938 23.2265625 C-14.29559778 23.70923267 -20.81777835 24.05275087 -27.4375 23.9375 C-27.80697587 16.74414769 -27.53857359 10.64873853 -22.75 4.91796875 C-16.1248983 -1.8589582 -9.23413258 -2.85418643 0 0 Z " fill="#FEFAFA" transform="translate(1235.4375,1137.0625)"/>
<path d="M0 0 C12 0 12 0 15.125 1.75 C18.83695502 6.20434603 19.50814855 9.10547677 19 15 C17.27511943 19.62994259 15.38051389 22.62722164 11 25 C7.37 25 3.74 25 0 25 C0 16.75 0 8.5 0 0 Z " fill="#FEF6F6" transform="translate(917,1381)"/>
<path d="M0 0 C14.27586207 -0.47586207 14.27586207 -0.47586207 19.875 4.75 C21.50340357 8.00680714 21.37833086 10.40585687 21 14 C19.17764445 18.22019181 17.09243826 20.00493635 13 22 C8.62713126 22.38448436 4.40061175 22.13335187 0 22 C0 14.74 0 7.48 0 0 Z " fill="#FEF7F7" transform="translate(733,1415)"/>
<path d="M0 0 C12.55555556 0 12.55555556 0 16 3 C19.11266915 7.66900373 18.59836278 12.53347583 18 18 C16.23807885 21.26281695 14.93552228 22.43868663 11.8125 24.3125 C9 25 9 25 0 25 C0 16.75 0 8.5 0 0 Z " fill="#FEFBFB" transform="translate(1007,1381)"/>
<path d="M0 0 C6.61850232 -0.27199325 11.18822804 -0.26912173 17 3 C19.4915904 6.7373856 19.45793285 8.57331583 19 13 C16.86320715 16.38939556 15.8225233 17.72582557 12 19 C7.99616868 19.13399703 4.0072645 19.04308887 0 19 C0 12.73 0 6.46 0 0 Z " fill="#FEF6F6" transform="translate(733,1380)"/>
<path d="M0 0 C0.66 0 1.32 0 2 0 C2.98697159 3.35191948 3.96314756 6.70689263 4.9375 10.0625 C5.21529297 11.00544922 5.49308594 11.94839844 5.77929688 12.91992188 C6.18051758 14.30727539 6.18051758 14.30727539 6.58984375 15.72265625 C6.83597412 16.56578369 7.08210449 17.40891113 7.33569336 18.27758789 C8.11512845 21.47181084 8.53501442 24.74510097 9 28 C3.72 28 -1.56 28 -7 28 C-6.40317702 21.53315857 -4.87545517 15.68706803 -2.9375 9.5 C-2.65583984 8.5821875 -2.37417969 7.664375 -2.08398438 6.71875 C-1.3951987 4.47727797 -0.70044695 2.23784969 0 0 Z " fill="#FEF3F3" transform="translate(833,1391)"/>
<path d="M0 0 C0.66 0 1.32 0 2 0 C2.33773437 1.15757813 2.67546875 2.31515625 3.0234375 3.5078125 C3.47389983 5.04689212 3.92442394 6.58595367 4.375 8.125 C4.59671875 8.88554688 4.8184375 9.64609375 5.046875 10.4296875 C6.01602347 13.73619405 6.99915574 16.99764854 8.1640625 20.2421875 C9 23 9 23 9 28 C3.72 28 -1.56 28 -7 28 C-5.87536994 20.12758961 -5.87536994 20.12758961 -4.84375 16.73828125 C-4.51697266 15.64870117 -4.51697266 15.64870117 -4.18359375 14.53710938 C-3.84521484 13.43592773 -3.84521484 13.43592773 -3.5 12.3125 C-3.05142136 10.82962717 -2.60348315 9.34656043 -2.15625 7.86328125 C-1.95837891 7.21657471 -1.76050781 6.56986816 -1.55664062 5.90356445 C-0.98445559 3.94684219 -0.48177825 1.98073558 0 0 Z " fill="#FEF4F4" transform="translate(649,1391)"/>
</svg>
